<svg
    xmlns="http://www.w3.org/2000/svg"
    width="10"
    height="10"
    viewBox="0 0 10 10"
    fill="none"
>
    <path
        d="M0.7209 7.03418C0.799025 6.76074 0.955275 6.50684 1.15059 6.31152L7.08809 0.374023C7.57637 -0.114258 8.37715 -0.114258 8.86543 0.374023L9.62715 1.13574C9.68574 1.19434 9.74434 1.27246 9.7834 1.33105C10.1154 1.81934 10.0568 2.4834 9.62715 2.91309L3.68965 8.85059C3.67012 8.87012 3.63106 8.88965 3.61152 8.92871C3.41621 9.08496 3.20137 9.20215 2.96699 9.28027L0.603712 9.96387C0.447462 10.0225 0.271681 9.9834 0.154493 9.84668C0.0177747 9.72949 -0.0212878 9.55371 0.0177747 9.39746L0.7209 7.03418ZM1.17012 8.83105L2.69356 8.38184C2.73262 8.3623 2.79121 8.34277 2.83027 8.32324L2.12715 8.18652C1.9709 8.14746 1.83418 8.03027 1.81465 7.87402L1.67793 7.1709C1.6584 7.20996 1.63887 7.26855 1.61934 7.30762L1.17012 8.83105ZM3.5334 7.67871L7.49824 3.71387L6.26777 2.50293L2.32246 6.46777L2.51777 7.46387L3.5334 7.67871Z"
        fill="black"
    />
</svg>