<svg
    width="20"
    height="20"
    viewBox="0 0 20 20"
    fill="none"
    xmlns="http://www.w3.org/2000/svg"
    class="w-6 h-6 text-black"
>
    <rect width="20" height="20" rx="1" fill="#F3E43E" />
    <path
        d="M13.3789 6.83594C13.6133 7.07031 13.75 7.38281 13.75 7.71484V13.75C13.75 14.4531 13.1836 15 12.5 15H7.5C6.79688 15 6.25 14.4531 6.25 13.75V6.25C6.25 5.56641 6.79688 5 7.5 5H11.0352C11.3672 5 11.6797 5.13672 11.9141 5.37109L13.3789 6.83594ZM12.8125 13.75H12.793V8.125H11.25C10.8984 8.125 10.625 7.85156 10.625 7.5V5.95703H7.5C7.32422 5.95703 7.1875 6.09375 7.1875 6.26953V13.75C7.1875 13.9258 7.32422 14.0625 7.5 14.0625H12.5C12.6562 14.0625 12.8125 13.9258 12.8125 13.75ZM9.49219 11.3477L11.0352 9.55078C11.2109 9.35547 11.5039 9.33594 11.6992 9.49219C11.8945 9.66797 11.9141 9.96094 11.7578 10.1562L9.88281 12.3438C9.78516 12.4414 9.66797 12.5 9.53125 12.5C9.39453 12.5 9.27734 12.4609 9.17969 12.3633L8.24219 11.4258C8.04688 11.25 8.04688 10.957 8.24219 10.7617C8.41797 10.5859 8.71094 10.5859 8.90625 10.7617L9.49219 11.3477Z"
        fill="black"
    />
</svg>